<?xml version="1.0" standalone="no"?>
<!DOCTYPE svg PUBLIC "-//W3C//DTD SVG 20010904//EN"
 "http://www.w3.org/TR/2001/REC-SVG-20010904/DTD/svg10.dtd">
<svg version="1.0" xmlns="http://www.w3.org/2000/svg"
 width="217px" height="237.px" viewBox="0 0 500.000000 500.000000"
 preserveAspectRatio="xMidYMid meet">
<metadata>
Created by potrace 1.16, written by Peter Selinger 2001-2019
</metadata>
<g transform="translate(0.000000,500.000000) scale(0.100000,-0.100000)"
fill="#000000" stroke="none">
<path d="M0 2500 l0 -2500 1143 0 c1120 1 1141 1 1107 20 -20 10 -52 33 -72
52 -42 39 -138 166 -138 183 0 6 -8 20 -17 31 -25 28 -42 55 -54 86 -6 15 -19
43 -28 62 -10 19 -17 45 -15 58 2 13 -4 37 -14 54 -21 38 -62 122 -73 149 -4
11 -10 39 -12 63 -4 36 -3 41 8 32 12 -10 13 -6 5 21 -11 36 -5 53 16 45 8 -3
14 -1 14 4 0 6 -7 10 -15 10 -8 0 -15 7 -15 15 0 8 -9 24 -20 35 -11 11 -20
23 -20 26 0 3 -9 17 -20 31 -15 20 -17 29 -9 39 6 8 15 11 20 8 14 -8 10 9 -7
34 -9 13 -18 37 -21 55 -4 27 -3 29 11 18 9 -8 16 -20 16 -28 0 -8 4 -12 9 -8
5 3 12 -4 16 -15 3 -11 13 -20 20 -20 9 0 12 -6 9 -15 -9 -22 5 -38 21 -25 10
9 14 6 17 -11 2 -13 17 -29 38 -40 19 -11 38 -28 42 -38 5 -14 20 -22 53 -26
40 -6 44 -9 33 -23 -11 -13 -10 -14 15 -8 20 5 27 3 27 -9 0 -8 7 -15 16 -15
8 0 12 -4 9 -10 -3 -6 5 -10 19 -10 14 0 27 -4 30 -9 3 -5 20 -11 37 -13 25
-4 32 -1 40 19 7 19 14 23 32 18 16 -5 18 -4 8 3 -12 9 -12 13 2 26 13 13 20
14 41 5 15 -7 42 -9 71 -4 40 5 46 9 42 26 -4 14 0 19 17 19 36 0 130 27 134
39 2 6 18 10 35 10 l32 -1 -30 -7 c-18 -4 -25 -9 -18 -14 18 -11 62 10 74 36
10 22 57 47 90 47 8 0 28 14 46 30 18 17 38 30 46 30 8 0 20 7 27 15 7 8 15
13 19 11 4 -3 27 11 50 30 24 19 48 34 54 34 5 0 19 10 31 23 11 12 36 33 54
45 17 13 32 30 32 37 0 14 38 41 53 37 4 -1 7 2 7 6 0 5 8 18 18 30 9 12 25
31 34 43 l17 22 6 -26 c4 -14 5 -29 2 -34 -5 -8 6 -204 18 -344 6 -69 4 -83
-26 -170 -18 -52 -43 -111 -56 -131 -12 -21 -23 -41 -23 -45 0 -4 -11 -23 -24
-42 -90 -137 -126 -196 -163 -271 -24 -46 -43 -91 -43 -100 0 -9 -9 -26 -20
-38 -19 -20 -19 -22 -2 -31 14 -8 4 -16 -58 -44 -41 -19 -105 -47 -143 -62
-49 -20 -67 -33 -67 -47 0 -25 -19 -23 -29 4 l-8 22 -12 -21 c-6 -12 -11 -26
-11 -32 0 -8 357 -11 1200 -11 l1200 0 0 2500 0 2500 -2500 0 -2500 0 0 -2500z
m3152 1250 c6 0 20 7 29 16 17 16 19 15 29 -10 5 -15 14 -24 20 -21 5 3 10 1
10 -6 0 -20 31 -48 45 -43 8 4 20 -7 30 -25 8 -17 22 -31 29 -31 9 0 12 -7 9
-18 -2 -10 7 -34 21 -55 14 -20 23 -37 19 -37 -3 0 -1 -6 5 -12 5 -7 10 -65 9
-131 0 -128 4 -144 64 -232 18 -27 20 -40 14 -140 -5 -89 -3 -131 14 -220 11
-60 22 -128 24 -150 2 -22 4 3 5 55 l2 95 55 22 c61 25 85 21 121 -18 31 -35
44 -83 44 -160 0 -131 -38 -319 -89 -439 -11 -25 -26 -65 -35 -90 -19 -55 -67
-110 -96 -110 -18 0 -20 4 -16 33 20 121 25 217 14 244 -11 27 -12 26 -18 -33
-4 -33 -15 -75 -26 -94 -13 -23 -16 -34 -7 -37 8 -3 9 -12 4 -26 -5 -12 -11
-40 -14 -63 -3 -23 -16 -58 -28 -78 -11 -20 -18 -43 -15 -51 3 -9 -3 -32 -14
-53 -11 -20 -20 -31 -20 -25 0 39 -52 -30 -68 -91 -13 -47 -31 -44 -25 3 4 29
2 41 -7 41 -9 0 -11 12 -7 43 l6 42 -20 -24 c-20 -25 -26 -61 -9 -61 13 0 13
-47 1 -55 -5 -3 -12 7 -14 22 -2 18 -5 9 -6 -22 -2 -37 -5 -45 -10 -30 -8 19
-9 18 -12 -5 -3 -16 -10 -25 -22 -24 -9 1 -17 -2 -17 -7 0 -5 5 -9 10 -9 6 0
10 -7 10 -15 0 -25 -17 -17 -24 11 -7 25 0 64 13 74 4 3 17 22 30 42 24 41 19
74 -6 38 -12 -16 -18 -18 -29 -9 -10 8 -17 7 -29 -4 -8 -9 -15 -21 -15 -27 0
-7 -7 -9 -16 -6 -12 4 -15 2 -10 -9 3 -10 -1 -15 -14 -15 -22 0 -35 16 -20 25
6 4 8 10 5 14 -2 5 7 21 21 37 22 25 24 35 19 77 -7 61 -14 79 -28 70 -17 -10
-47 -11 -53 -1 -3 4 -11 5 -17 1 -15 -10 -137 -10 -137 -1 0 4 -11 10 -25 14
-14 3 -25 11 -25 16 0 6 -6 5 -15 -2 -12 -10 -18 -10 -30 0 -8 7 -15 18 -15
25 0 12 -21 25 -41 25 -6 0 -8 -10 -4 -22 5 -19 4 -20 -4 -6 -7 10 -19 14 -31
11 -11 -3 -20 -1 -20 4 0 5 -13 9 -30 8 -16 -1 -27 2 -24 7 3 4 -2 11 -11 14
-25 10 -44 -25 -42 -78 2 -44 4 -47 37 -57 19 -6 71 -13 115 -17 44 -4 88 -8
98 -9 9 -1 17 4 17 12 0 10 8 7 29 -8 16 -12 43 -22 60 -24 17 -1 34 -5 37 -8
16 -15 -45 -26 -147 -26 -63 1 -144 -1 -181 -3 -36 -2 -64 0 -62 4 2 4 -4 6
-13 6 -10 -1 -45 6 -77 15 -33 9 -65 13 -70 9 -6 -5 -40 -9 -76 -11 -36 -1
-74 -4 -85 -7 -11 -2 5 8 35 22 43 20 73 27 135 29 99 3 111 8 125 50 13 38 0
75 -25 75 -8 0 -18 8 -24 18 -9 16 -10 16 -16 0 -9 -24 -25 -23 -25 1 0 13 10
21 33 25 82 16 104 25 110 46 3 13 -2 20 -21 25 -13 3 -39 17 -57 31 -17 13
-37 24 -42 24 -6 0 -13 7 -17 15 -4 12 -10 13 -23 6 -10 -6 -45 -21 -77 -33
-33 -13 -61 -28 -63 -35 -3 -7 13 -17 37 -23 34 -9 48 -8 74 3 43 21 78 24 83
9 3 -7 -10 -19 -30 -27 -20 -8 -38 -19 -42 -25 -3 -5 -17 -10 -31 -10 -13 0
-24 -4 -24 -10 0 -5 -7 -10 -15 -10 -8 0 -15 -9 -15 -20 0 -17 -3 -18 -23 -9
-19 8 -34 5 -80 -17 -32 -14 -60 -24 -64 -20 -3 3 -12 1 -19 -5 -15 -12 -83
-18 -90 -8 -2 3 -15 4 -29 1 -15 -2 -25 0 -25 7 0 21 -70 -43 -71 -64 0 -19
-1 -18 -11 3 -6 12 -14 22 -18 22 -4 0 -13 13 -19 28 -12 29 -59 56 -119 68
-18 4 -32 12 -32 18 0 22 -20 -19 -20 -42 0 -22 -1 -22 -31 10 -16 18 -33 47
-36 63 l-7 30 -7 -25 c-5 -18 -7 -20 -8 -7 -1 11 -10 30 -21 44 -14 19 -20 41
-20 80 0 40 -8 70 -30 115 -24 47 -33 87 -45 183 -8 67 -13 147 -11 176 2 30
9 131 16 224 7 94 17 188 24 210 10 34 16 40 52 50 53 13 64 23 94 84 27 55
34 60 48 35 6 -10 12 -13 16 -6 9 16 -4 42 -23 43 -11 0 -9 3 7 9 12 5 22 15
22 22 0 9 -3 9 -10 -2 -11 -18 -16 -13 -25 21 -4 18 -1 31 9 42 20 20 21 47 1
47 -8 0 -15 4 -15 10 0 5 5 9 12 7 7 -1 15 12 18 28 4 25 10 30 33 30 23 -1
29 4 34 27 6 29 18 37 26 16 3 -7 6 -4 6 8 1 23 38 45 85 51 16 3 35 10 42 18
8 7 23 11 34 8 11 -3 20 0 20 6 0 6 15 11 34 11 19 0 38 5 42 11 4 7 10 7 16
1 7 -7 26 -4 56 9 34 15 59 19 98 14 38 -4 55 -1 64 10 9 11 17 12 32 4 11 -6
27 -7 36 -3 9 3 26 8 37 9 11 2 38 8 59 13 22 6 52 8 67 5 15 -3 30 0 33 6 4
6 12 8 18 5 6 -4 33 -6 60 -5 29 1 48 -3 48 -9 0 -6 12 -3 28 8 20 14 43 19
89 18 34 -1 64 -4 67 -7 4 -4 20 -5 36 -3 19 2 30 -1 30 -9 0 -8 4 -7 10 3 9
13 11 13 20 0 7 -11 10 -12 10 -2 0 9 8 12 28 8 18 -4 35 0 52 13 21 17 26 18
33 5 4 -8 13 -14 19 -14z m-1789 -924 c4 -10 1 -13 -9 -9 -29 11 -13 -7 19
-21 17 -8 43 -23 56 -34 21 -17 23 -22 13 -65 -5 -26 -6 -64 -2 -87 5 -29 4
-43 -6 -51 -8 -6 -19 -29 -26 -51 -9 -29 -16 -38 -29 -35 -12 3 -15 0 -11 -16
3 -11 1 -18 -4 -14 -6 3 -16 2 -23 -2 -34 -21 30 -125 72 -119 27 4 45 -60 36
-122 -4 -28 -1 -65 7 -98 20 -76 18 -92 -9 -92 -37 0 -74 43 -86 101 -6 29
-20 68 -31 88 -54 100 -90 243 -90 360 0 101 11 195 22 179 14 -22 61 38 48
62 -6 12 -17 16 -30 13 -16 -4 -19 -2 -14 11 8 21 89 23 97 2z m1639 -1037
c27 -42 29 -52 16 -60 -9 -6 -4 -11 20 -20 25 -9 32 -16 32 -37 -1 -26 -1 -26
-16 -7 -14 19 -15 19 -12 -4 2 -13 -3 -26 -9 -28 -9 -3 -13 5 -13 23 l0 28
-16 -22 c-9 -13 -14 -34 -11 -48 2 -13 0 -27 -5 -30 -5 -4 -7 -17 -4 -29 3
-13 2 -26 -2 -29 -5 -3 -9 -26 -10 -51 0 -45 -11 -71 -19 -49 -3 9 -10 9 -28
0 -27 -12 -32 -35 -13 -54 9 -9 6 -12 -15 -12 -17 0 -27 -5 -27 -15 0 -17 -16
-20 -25 -5 -4 6 -10 8 -15 5 -5 -3 -11 -1 -15 5 -9 15 -35 12 -35 -4 0 -16
-23 -28 -68 -33 -29 -4 -33 -1 -38 26 -7 33 -33 49 -46 29 -6 -10 -8 -10 -8 0
0 8 -8 10 -25 6 -18 -4 -27 -1 -31 10 -3 9 -17 16 -29 16 -13 0 -26 6 -28 13
-3 7 -6 4 -6 -6 -1 -10 -5 -16 -11 -12 -5 3 -19 0 -30 -7 -17 -11 -22 -11 -30
2 -7 12 -12 12 -28 -4 -13 -11 -22 -14 -27 -7 -4 7 -15 5 -33 -7 -24 -16 -26
-16 -19 0 5 15 2 16 -18 8 -22 -8 -31 -4 -70 35 -24 25 -49 45 -55 45 -18 0
-11 18 10 23 11 3 20 12 20 21 0 13 -6 15 -27 10 -23 -5 -26 -4 -15 7 20 22
14 39 -18 51 -26 9 -30 14 -26 38 3 22 1 27 -10 23 -18 -7 -43 50 -36 83 4 22
9 24 58 24 55 0 74 -14 74 -55 0 -22 52 -71 84 -79 14 -3 26 -13 26 -22 0 -11
6 -13 20 -9 27 9 77 -22 61 -38 -7 -7 5 -17 40 -34 58 -26 107 -30 115 -8 4 8
14 15 23 15 10 0 22 13 29 33 14 38 15 58 5 56 -5 -1 -31 -1 -60 0 -42 1 -51
4 -47 16 4 10 0 15 -12 16 -106 6 -171 25 -216 60 -43 35 -48 49 -17 49 12 0
27 7 34 16 10 14 46 16 291 16 198 1 289 4 310 13 27 11 100 14 106 4z"/>
<path d="M1790 3045 c-13 -13 -33 -28 -44 -31 -22 -7 -86 -64 -86 -76 0 -23
-37 -89 -52 -94 -21 -6 -23 -15 -7 -31 8 -8 8 -13 0 -17 -6 -4 -11 -16 -11
-27 0 -11 4 -18 8 -15 4 2 14 -9 21 -26 8 -17 23 -33 33 -36 15 -4 17 -7 6
-13 -10 -7 -9 -9 5 -9 10 0 29 -12 42 -26 17 -19 30 -24 42 -19 27 11 106 15
117 6 6 -5 28 -12 49 -15 36 -7 38 -6 32 14 -4 12 -1 27 5 35 9 11 9 15 1 15
-6 0 -11 9 -11 19 0 11 -9 23 -20 26 -29 9 -37 52 -14 70 27 21 31 19 43 -18
13 -40 44 -58 96 -60 32 -1 43 5 66 33 17 20 29 46 29 63 l0 29 38 -23 c20
-12 45 -31 56 -43 10 -11 25 -20 32 -18 8 2 14 -2 14 -8 0 -5 -15 -11 -32 -11
-29 -2 -28 -3 15 -12 40 -9 47 -14 44 -31 -1 -12 -13 -36 -26 -54 -13 -18 -21
-35 -19 -37 12 -13 69 18 111 61 l48 48 -6 61 c-7 64 -32 103 -91 141 -13 9
-24 22 -24 29 0 14 -43 45 -69 50 -9 2 -16 4 -16 6 0 6 -66 12 -175 15 -69 2
-130 4 -137 4 -6 0 -25 11 -41 25 -37 31 -43 31 -72 0z"/>
<path d="M2915 3003 c-24 -5 -76 -47 -74 -59 1 -5 1 -25 0 -45 -1 -33 -5 -37
-41 -49 -27 -9 -40 -19 -40 -32 0 -10 -4 -18 -10 -18 -18 0 -10 -22 10 -27 11
-3 20 -12 20 -19 0 -18 14 -18 30 1 7 8 17 15 22 15 6 0 22 9 38 20 l28 20 6
-39 c8 -54 41 -74 104 -65 57 8 82 28 82 66 0 32 16 36 60 13 30 -16 39 -42
20 -61 -7 -7 14 -10 60 -11 l71 -2 -23 19 -23 19 23 -6 c32 -8 27 8 -15 50
-37 37 -84 57 -138 57 -16 0 -52 6 -79 13 l-48 13 81 11 c96 14 234 11 254 -5
19 -16 29 -4 16 20 -7 14 -7 23 1 33 9 11 6 20 -15 39 -15 14 -31 24 -35 21
-4 -3 -21 0 -38 6 -22 7 -36 7 -49 0 -16 -9 -15 -10 7 -11 28 -1 78 -34 64
-42 -5 -3 -27 -2 -49 2 -22 4 -31 9 -20 10 17 2 17 3 -5 10 -14 4 -42 8 -63 9
-21 1 -46 5 -55 10 -20 10 -148 21 -177 14z"/>
</g>
</svg>
